jw_wpgait_ln4_grf.mot
version=1
nRows=114
nColumns=10
inDegrees=yes
endheader

time	ground_force_vx	ground_force_vy	ground_force_vz	ground_force_px	ground_force_py	ground_force_pz	ground_torque_x	ground_torque_y	ground_torque_z
6.944167	45.482599	511.368801	24.022535	0.299771	0.000000	-0.209851	0.000000	4.553001	0.000000	
6.945000	45.138998	510.642655	24.028910	0.299579	0.000000	-0.209886	0.000000	4.547411	0.000000	
6.945833	44.790965	509.916483	24.036908	0.299383	0.000000	-0.209909	0.000000	4.541756	0.000000	
6.946667	44.438707	509.191030	24.046584	0.299184	0.000000	-0.209922	0.000000	4.536057	0.000000	
6.947500	44.082439	508.467045	24.057973	0.298987	0.000000	-0.209930	0.000000	4.530336	0.000000	
6.948333	43.722385	507.745280	24.071096	0.298796	0.000000	-0.209937	0.000000	4.524612	0.000000	
6.949167	43.358781	507.026491	24.085954	0.298612	0.000000	-0.209948	0.000000	4.518908	0.000000	
6.950000	42.991868	506.311438	24.102532	0.298435	0.000000	-0.209967	0.000000	4.513242	0.000000	
6.950833	42.621898	505.600877	24.120798	0.298262	0.000000	-0.209995	0.000000	4.507636	0.000000	
6.951667	42.249129	504.895565	24.140703	0.298097	0.000000	-0.210033	0.000000	4.502108	0.000000	
6.952500	41.873825	504.196254	24.162183	0.297943	0.000000	-0.210080	0.000000	4.496679	0.000000	
6.953333	41.496259	503.503692	24.185159	0.297803	0.000000	-0.210131	0.000000	4.491367	0.000000	
6.954167	41.116707	502.818621	24.209536	0.297676	0.000000	-0.210181	0.000000	4.486189	0.000000	
6.955000	40.735450	502.141773	24.235204	0.297562	0.000000	-0.210226	0.000000	4.481165	0.000000	
6.955833	40.352777	501.473869	24.262042	0.297457	0.000000	-0.210263	0.000000	4.476311	0.000000	
6.956667	39.968977	500.815620	24.289913	0.297355	0.000000	-0.210293	0.000000	4.471644	0.000000	
6.957500	39.584344	500.167722	24.318671	0.297249	0.000000	-0.210315	0.000000	4.467180	0.000000	
6.958333	39.199176	499.530853	24.348156	0.297134	0.000000	-0.210331	0.000000	4.462934	0.000000	
6.959167	38.813770	498.905675	24.378200	0.297006	0.000000	-0.210342	0.000000	4.458922	0.000000	
6.960000	38.428428	498.292832	24.408623	0.296864	0.000000	-0.210349	0.000000	4.455157	0.000000	
6.960833	38.043451	497.692944	24.439240	0.296714	0.000000	-0.210353	0.000000	4.451654	0.000000	
6.961667	37.659141	497.106609	24.469856	0.296559	0.000000	-0.210357	0.000000	4.448425	0.000000	
6.962500	37.275801	496.534400	24.500271	0.296404	0.000000	-0.210363	0.000000	4.445484	0.000000	
6.963333	36.893733	495.976865	24.530280	0.296252	0.000000	-0.210375	0.000000	4.442840	0.000000	
6.964167	36.513236	495.434524	24.559672	0.296104	0.000000	-0.210396	0.000000	4.440507	0.000000	
6.965000	36.134609	494.907868	24.588236	0.295962	0.000000	-0.210429	0.000000	4.438494	0.000000	
6.965833	35.758151	494.397359	24.615757	0.295828	0.000000	-0.210475	0.000000	4.436811	0.000000	
6.966667	35.384153	493.903425	24.642021	0.295701	0.000000	-0.210531	0.000000	4.435466	0.000000	
6.967500	35.012908	493.426465	24.666815	0.295584	0.000000	-0.210594	0.000000	4.434469	0.000000	
6.968333	34.644703	492.966843	24.689925	0.295474	0.000000	-0.210659	0.000000	4.433827	0.000000	
6.969167	34.279820	492.524889	24.711143	0.295373	0.000000	-0.210720	0.000000	4.433547	0.000000	
6.970000	33.918538	492.100899	24.730263	0.295278	0.000000	-0.210775	0.000000	4.433635	0.000000	
6.970833	33.561130	491.695133	24.747087	0.295189	0.000000	-0.210821	0.000000	4.434097	0.000000	
6.971667	33.207862	491.307816	24.761420	0.295101	0.000000	-0.210858	0.000000	4.434938	0.000000	
6.972500	32.858996	490.939137	24.773077	0.295013	0.000000	-0.210884	0.000000	4.436161	0.000000	
6.973333	32.514786	490.589248	24.781879	0.294924	0.000000	-0.210898	0.000000	4.437770	0.000000	
6.974167	32.175479	490.258266	24.787659	0.294836	0.000000	-0.210901	0.000000	4.439767	0.000000	
6.975000	31.841314	489.946272	24.790258	0.294752	0.000000	-0.210893	0.000000	4.442156	0.000000	
6.975833	31.512523	489.653312	24.789528	0.294672	0.000000	-0.210877	0.000000	4.444936	0.000000	
6.976667	31.189328	489.379395	24.785336	0.294597	0.000000	-0.210856	0.000000	4.448109	0.000000	
6.977500	30.871944	489.124498	24.777558	0.294520	0.000000	-0.210836	0.000000	4.451676	0.000000	
6.978333	30.560573	488.888562	24.766085	0.294436	0.000000	-0.210822	0.000000	4.455634	0.000000	
6.979167	30.255412	488.671495	24.750821	0.294337	0.000000	-0.210818	0.000000	4.459983	0.000000	
6.980000	29.956642	488.473175	24.731685	0.294221	0.000000	-0.210830	0.000000	4.464720	0.000000	
6.980833	29.664439	488.293445	24.708611	0.294086	0.000000	-0.210860	0.000000	4.469844	0.000000	
6.981667	29.378962	488.132121	24.681547	0.293936	0.000000	-0.210907	0.000000	4.475351	0.000000	
6.982500	29.100363	487.988988	24.650459	0.293775	0.000000	-0.210964	0.000000	4.481237	0.000000	
6.983333	28.828779	487.863803	24.615324	0.293610	0.000000	-0.211025	0.000000	4.487497	0.000000	
6.984167	28.564335	487.756298	24.576139	0.293445	0.000000	-0.211084	0.000000	4.494127	0.000000	
6.985000	28.307144	487.666178	24.532914	0.293284	0.000000	-0.211138	0.000000	4.501120	0.000000	
6.985833	28.057303	487.593122	24.485676	0.293126	0.000000	-0.211186	0.000000	4.508471	0.000000	
6.986667	27.814896	487.536791	24.434467	0.292972	0.000000	-0.211224	0.000000	4.516172	0.000000	
6.987500	27.579995	487.496821	24.379345	0.292822	0.000000	-0.211249	0.000000	4.524215	0.000000	
6.988333	27.352654	487.472829	24.320381	0.292680	0.000000	-0.211259	0.000000	4.532594	0.000000	
6.989167	27.132914	487.464414	24.257664	0.292553	0.000000	-0.211253	0.000000	4.541300	0.000000	
6.990000	26.920799	487.471158	24.191293	0.292440	0.000000	-0.211229	0.000000	4.550323	0.000000	
6.990833	26.716320	487.492629	24.121383	0.292342	0.000000	-0.211191	0.000000	4.559654	0.000000	
6.991667	26.519470	487.528378	24.048064	0.292254	0.000000	-0.211142	0.000000	4.569283	0.000000	
6.992500	26.330227	487.577948	23.971476	0.292168	0.000000	-0.211087	0.000000	4.579201	0.000000	
6.993333	26.148552	487.640869	23.891771	0.292075	0.000000	-0.211033	0.000000	4.589396	0.000000	
6.994167	25.974391	487.716663	23.809114	0.291968	0.000000	-0.210986	0.000000	4.599858	0.000000	
6.995000	25.807675	487.804843	23.723679	0.291841	0.000000	-0.210953	0.000000	4.610575	0.000000	
6.995833	25.648316	487.904920	23.635652	0.291694	0.000000	-0.210932	0.000000	4.621536	0.000000	
6.996667	25.496213	488.016398	23.545224	0.291530	0.000000	-0.210923	0.000000	4.632729	0.000000	
6.997500	25.351246	488.138779	23.452599	0.291358	0.000000	-0.210923	0.000000	4.644142	0.000000	
6.998333	25.213282	488.271563	23.357986	0.291188	0.000000	-0.210929	0.000000	4.655763	0.000000	
6.999167	25.082171	488.414254	23.261599	0.291026	0.000000	-0.210940	0.000000	4.667579	0.000000	
7.000000	24.957749	488.566353	23.163661	0.290876	0.000000	-0.210956	0.000000	4.679578	0.000000	
7.000833	24.839835	488.727369	23.064396	0.290738	0.000000	-0.210977	0.000000	4.691747	0.000000	
7.001667	24.728236	488.896814	22.964034	0.290614	0.000000	-0.211002	0.000000	4.704073	0.000000	
7.002500	24.622743	489.074206	22.862808	0.290501	0.000000	-0.211029	0.000000	4.716543	0.000000	
7.003333	24.523135	489.259072	22.760951	0.290395	0.000000	-0.211056	0.000000	4.729144	0.000000	
7.004167	24.429177	489.450946	22.658697	0.290289	0.000000	-0.211082	0.000000	4.741863	0.000000	
7.005000	24.340623	489.649376	22.556282	0.290176	0.000000	-0.211106	0.000000	4.754687	0.000000	
7.005833	24.257214	489.853919	22.453939	0.290048	0.000000	-0.211126	0.000000	4.767603	0.000000	
7.006667	24.178682	490.064146	22.351898	0.289898	0.000000	-0.211144	0.000000	4.780597	0.000000	
7.007500	24.104747	490.279642	22.250389	0.289722	0.000000	-0.211162	0.000000	4.793655	0.000000	
7.008333	24.035123	490.500009	22.149636	0.289519	0.000000	-0.211185	0.000000	4.806766	0.000000	
7.009167	23.969512	490.724862	22.049860	0.289288	0.000000	-0.211211	0.000000	4.819915	0.000000	
7.010000	23.907612	490.953837	21.951274	0.289035	0.000000	-0.211239	0.000000	4.833088	0.000000	
7.010833	23.849114	491.186587	21.854086	0.288767	0.000000	-0.211265	0.000000	4.846274	0.000000	
7.011667	23.793702	491.422784	21.758498	0.288494	0.000000	-0.211285	0.000000	4.859458	0.000000	
7.012500	23.741057	491.662119	21.664704	0.288227	0.000000	-0.211298	0.000000	4.872627	0.000000	
7.013333	23.690859	491.904306	21.572888	0.287974	0.000000	-0.211304	0.000000	4.885768	0.000000	
7.014167	23.642782	492.149077	21.483227	0.287740	0.000000	-0.211305	0.000000	4.898868	0.000000	
7.015000	23.596501	492.396187	21.395886	0.287526	0.000000	-0.211304	0.000000	4.911912	0.000000	
7.015833	23.551690	492.645410	21.311023	0.287334	0.000000	-0.211301	0.000000	4.924889	0.000000	
7.016667	23.508026	492.896545	21.228782	0.287164	0.000000	-0.211299	0.000000	4.937783	0.000000	
7.017500	23.465185	493.149408	21.149300	0.287013	0.000000	-0.211296	0.000000	4.950583	0.000000	
7.018333	23.422848	493.403839	21.072700	0.286875	0.000000	-0.211292	0.000000	4.963275	0.000000	
7.019167	23.380700	493.659698	20.999094	0.286748	0.000000	-0.211284	0.000000	4.975846	0.000000	
7.020000	23.338430	493.916865	20.928582	0.286625	0.000000	-0.211272	0.000000	4.988282	0.000000	
7.020833	23.295733	494.175239	20.861252	0.286500	0.000000	-0.211258	0.000000	5.000570	0.000000	
7.021667	23.252311	494.434740	20.797180	0.286370	0.000000	-0.211248	0.000000	5.012698	0.000000	
7.022500	23.207874	494.695304	20.736430	0.286231	0.000000	-0.211247	0.000000	5.024652	0.000000	
7.023333	23.162138	494.956886	20.679053	0.286077	0.000000	-0.211261	0.000000	5.036420	0.000000	
7.024167	23.114829	495.219457	20.625089	0.285906	0.000000	-0.211290	0.000000	5.047990	0.000000	
7.025000	23.065684	495.483003	20.574564	0.285722	0.000000	-0.211333	0.000000	5.059348	0.000000	
7.025833	23.014448	495.747526	20.527493	0.285533	0.000000	-0.211386	0.000000	5.070483	0.000000	
7.026667	22.960878	496.013039	20.483880	0.285346	0.000000	-0.211445	0.000000	5.081383	0.000000	
7.027500	22.904739	496.279567	20.443716	0.285168	0.000000	-0.211508	0.000000	5.092036	0.000000	
7.028333	22.845811	496.547146	20.406982	0.285000	0.000000	-0.211573	0.000000	5.102431	0.000000	
7.029167	22.783882	496.815822	20.373646	0.284846	0.000000	-0.211639	0.000000	5.112557	0.000000	
7.030000	22.718755	497.085648	20.343667	0.284705	0.000000	-0.211706	0.000000	5.122402	0.000000	
7.030833	22.650241	497.356680	20.316995	0.284578	0.000000	-0.211774	0.000000	5.131957	0.000000	
7.031667	22.578165	497.628983	20.293568	0.284461	0.000000	-0.211840	0.000000	5.141212	0.000000	
7.032500	22.502365	497.902621	20.273316	0.284349	0.000000	-0.211900	0.000000	5.150156	0.000000	
7.033333	22.422688	498.177664	20.256160	0.284235	0.000000	-0.211951	0.000000	5.158781	0.000000	
7.034167	22.338994	498.454176	20.242014	0.284111	0.000000	-0.211990	0.000000	5.167078	0.000000	
7.035000	22.251155	498.732224	20.230783	0.283971	0.000000	-0.212017	0.000000	5.175039	0.000000	
7.035833	22.159053	499.011870	20.222367	0.283814	0.000000	-0.212034	0.000000	5.182656	0.000000	
7.036667	22.062583	499.293173	20.216658	0.283642	0.000000	-0.212045	0.000000	5.189922	0.000000	
7.037500	21.961648	499.576183	20.213545	0.283455	0.000000	-0.212056	0.000000	5.196830	0.000000	
7.038333	21.856164	499.860946	20.212910	0.283255	0.000000	-0.212069	0.000000	5.203375	0.000000	
